# xmcd
#
# Track frame offsets:
#	150
#	8608
#	24135
#	39951
#	62595
#	70879
#	82477
#	99895
#	117718
#	138283
#	154598
#	173114
#	183387
#	205759
#	221092
#
# Disc length: 3073 seconds
#
# Revision: 0
# Processed by: cddbd v1.5.2PL0 Copyright (c) Steve Scherf et al.
# Submitted via: dBpowerAMP V4.0
#
DISCID=c40bff0f
DTITLE=Jill Scott - The Real Thing
DYEAR=1900
DGENRE=R&B
TTITLE0=Real Thing
TTITLE1=The Real Thing
TTITLE2=Hate On Me
TTITLE3=Come See Me
TTITLE4=Crown Royal
TTITLE5=Epiphany
TTITLE6=My Love
TTITLE7=Insomnia
TTITLE8=How's It Make You Feel
TTITLE9=Only You
TTITLE10=Whenever You're Around
TTITLE11=Celibacy Blues
TTITLE12=All I
TTITLE13=Wanna Be Loved
TTITLE14=Breathe
EXTD=
EXTT0=
EXTT1=
EXTT2=
EXTT3=
EXTT4=
EXTT5=
EXTT6=
EXTT7=
EXTT8=
EXTT9=
EXTT10=
EXTT11=
EXTT12=
EXTT13=
EXTT14=
PLAYORDER=
